{
  "accessors": [
    {
      "bufferView": 2,
      "componentType": 5126,
      "count": 129,
      "max": [
        0.005489999894052744,
        0.15623800456523895,
        0.00406700000166893
      ],
      "min": [
        0.0039969999343156815,
        0.15474599599838257,
        0.0037380000576376915
      ],
      "type": "VEC3"
    },
    {
      "bufferView": 2,
      "byteOffset": 1548,
      "componentType": 5126,
      "count": 129,
      "max": [
        0.7089045643806458,
        0.7089045643806458,
        1.0
      ],
      "min": [
        -0.7089045643806458,
        -0.7089045643806458,
        0.7052090167999268
      ],
      "type": "VEC3"
    },
    {
      "bufferView": 1,
      "componentType": 5126,
      "count": 129,
      "max": [
        1.0,
        1.0
      ],
      "min": [
        0.0,
        0.0
      ],
      "type": "VEC2"
    },
    {
      "bufferView": 0,
      "componentType": 5125,
      "count": 672,
      "type": "SCALAR"
    },
    {
      "bufferView": 2,
      "byteOffset": 3096,
      "componentType": 5126,
      "count": 232,
      "max": [
        0.004356999881565571,
        0.006922000087797642,
        0.0014120000414550304
      ],
      "min": [
        -0.004356000106781721,
        0.0002390000008745119,
        -0.0014260000316426158
      ],
      "type": "VEC3"
    },
    {
      "bufferView": 2,
      "byteOffset": 5880,
      "componentType": 5126,
      "count": 232,
      "max": [
        1.0,
        0.0,
        1.0
      ],
      "min": [
        -1.0,
        -1.0,
        -1.0
      ],
      "type": "VEC3"
    },
    {
      "bufferView": 3,
      "componentType": 5126,
      "count": 232,
      "max": [
        0.8549019694328308,
        0.8549019694328308,
        0.8549019694328308,
        0.0
      ],
      "min": [
        0.0,
        0.0,
        0.0,
        0.0
      ],
      "type": "VEC4"
    },
    {
      "bufferView": 1,
      "byteOffset": 1032,
      "componentType": 5126,
      "count": 232,
      "max": [
        0.6749460101127625,
        0.3855069875717163
      ],
      "min": [
        0.6745370030403137,
        0.3269850015640259
      ],
      "type": "VEC2"
    },
    {
      "bufferView": 0,
      "byteOffset": 2688,
      "componentType": 5125,
      "count": 648,
      "type": "SCALAR"
    },
    {
      "bufferView": 2,
      "byteOffset": 8664,
      "componentType": 5126,
      "count": 5193,
      "max": [
        0.03900500014424324,
        0.15947900712490082,
        0.0042500002309679985
      ],
      "min": [
        -0.03899199888110161,
        0.015368999913334846,
        -0.006558000110089779
      ],
      "type": "VEC3"
    },
    {
      "bufferView": 2,
      "byteOffset": 70980,
      "componentType": 5126,
      "count": 5193,
      "max": [
        1.0,
        1.0,
        0.9998767375946045
      ],
      "min": [
        -1.0,
        -1.0,
        -1.0
      ],
      "type": "VEC3"
    },
    {
      "bufferView": 3,
      "byteOffset": 3712,
      "componentType": 5126,
      "count": 5193,
      "max": [
        0.9960784316062927,
        0.9960784316062927,
        0.9960784316062927,
        0.0
      ],
      "min": [
        0.0,
        0.0,
        0.0,
        0.0
      ],
      "type": "VEC4"
    },
    {
      "bufferView": 1,
      "byteOffset": 2888,
      "componentType": 5126,
      "count": 5193,
      "max": [
        0.6238399744033813,
        1.0
      ],
      "min": [
        0.0,
        0.24153900146484375
      ],
      "type": "VEC2"
    },
    {
      "bufferView": 0,
      "byteOffset": 5280,
      "componentType": 5125,
      "count": 17037,
      "type": "SCALAR"
    },
    {
      "bufferView": 2,
      "byteOffset": 133296,
      "componentType": 5126,
      "count": 33,
      "max": [
        0.007586999796330929,
        0.15833599865436554,
        0.0043219998478889465
      ],
      "min": [
        0.0019000000320374966,
        0.15264900028705597,
        0.0043219998478889465
      ],
      "type": "VEC3"
    },
    {
      "bufferView": 2,
      "byteOffset": 133692,
      "componentType": 5126,
      "count": 33,
      "max": [
        -0.0,
        0.0,
        1.0
      ],
      "min": [
        -0.0,
        0.0,
        1.0
      ],
      "type": "VEC3"
    },
    {
      "bufferView": 1,
      "byteOffset": 44432,
      "componentType": 5126,
      "count": 33,
      "max": [
        0.9924079775810242,
        0.3409929871559143
      ],
      "min": [
        0.6755980253219604,
        0.02418299950659275
      ],
      "type": "VEC2"
    },
    {
      "bufferView": 0,
      "byteOffset": 73428,
      "componentType": 5125,
      "count": 96,
      "type": "SCALAR"
    },
    {
      "bufferView": 2,
      "byteOffset": 134088,
      "componentType": 5126,
      "count": 1650,
      "max": [
        0.034995000809431076,
        0.1143610030412674,
        -0.0031640001107007265
      ],
      "min": [
        -0.034995000809431076,
        0.00393499992787838,
        -0.0043750000186264515
      ],
      "type": "VEC3"
    },
    {
      "bufferView": 2,
      "byteOffset": 153888,
      "componentType": 5126,
      "count": 1650,
      "max": [
        1.0,
        1.0,
        0.0
      ],
      "min": [
        -1.0,
        -1.0,
        -1.0
      ],
      "type": "VEC3"
    },
    {
      "bufferView": 1,
      "byteOffset": 44696,
      "componentType": 5126,
      "count": 1650,
      "max": [
        2.8245198726654053,
        3.990535259246826
      ],
      "min": [
        0.7145050168037415,
        1.009464979171753
      ],
      "type": "VEC2"
    },
    {
      "bufferView": 0,
      "byteOffset": 73812,
      "componentType": 5125,
      "count": 6174,
      "type": "SCALAR"
    },
    {
      "bufferView": 2,
      "byteOffset": 173688,
      "componentType": 5126,
      "count": 17,
      "max": [
        0.014245999976992607,
        0.16206799447536469,
        0.003986999858170748
      ],
      "min": [
        -0.014235000126063824,
        0.16165900230407715,
        0.003986999858170748
      ],
      "type": "VEC3"
    },
    {
      "bufferView": 2,
      "byteOffset": 173892,
      "componentType": 5126,
      "count": 17,
      "max": [
        -0.0,
        9.999999747378752e-05,
        1.0
      ],
      "min": [
        -0.0,
        -9.999999747378752e-05,
        1.0
      ],
      "type": "VEC3"
    },
    {
      "bufferView": 3,
      "byteOffset": 86800,
      "componentType": 5126,
      "count": 17,
      "max": [
        -0.9999551773071289,
        0.002220188733190298,
        5.354685299607809e-07,
        -1.0
      ],
      "min": [
        -1.0,
        -0.009468740783631802,
        -9.468740813645127e-07,
        -1.0
      ],
      "type": "VEC4"
    },
    {
      "bufferView": 3,
      "byteOffset": 87072,
      "componentType": 5126,
      "count": 17,
      "max": [
        0.6392157077789307,
        0.6392157077789307,
        0.6392157077789307,
        0.0
      ],
      "min": [
        0.019607843831181526,
        0.019607843831181526,
        0.019607843831181526,
        0.0
      ],
      "type": "VEC4"
    },
    {
      "bufferView": 1,
      "byteOffset": 57896,
      "componentType": 5126,
      "count": 17,
      "max": [
        323.6739807128906,
        1000.0
      ],
      "min": [
        146.6280059814453,
        997.4580078125
      ],
      "type": "VEC2"
    },
    {
      "bufferView": 1,
      "byteOffset": 58032,
      "componentType": 5126,
      "count": 17,
      "max": [
        323.6739807128906,
        1000.0
      ],
      "min": [
        146.6280059814453,
        997.4580078125
      ],
      "type": "VEC2"
    },
    {
      "bufferView": 0,
      "byteOffset": 98508,
      "componentType": 5125,
      "count": 45,
      "type": "SCALAR"
    },
    {
      "bufferView": 2,
      "byteOffset": 174096,
      "componentType": 5126,
      "count": 1867,
      "max": [
        0.03782900050282478,
        0.16206799447536469,
        0.0043219998478889465
      ],
      "min": [
        -0.037817999720573425,
        0.0012019999558106065,
        0.003986999858170748
      ],
      "type": "VEC3"
    },
    {
      "bufferView": 2,
      "byteOffset": 196500,
      "componentType": 5126,
      "count": 1867,
      "max": [
        0.999998927116394,
        0.999998927116394,
        1.0
      ],
      "min": [
        -0.999998927116394,
        -0.999998927116394,
        0.0005999953136779368
      ],
      "type": "VEC3"
    },
    {
      "bufferView": 3,
      "byteOffset": 87344,
      "componentType": 5126,
      "count": 1867,
      "max": [
        0.9960784316062927,
        0.9960784316062927,
        0.9960784316062927,
        0.0
      ],
      "min": [
        0.3333333432674408,
        0.3333333432674408,
        0.3333333432674408,
        0.0
      ],
      "type": "VEC4"
    },
    {
      "bufferView": 1,
      "byteOffset": 58168,
      "componentType": 5126,
      "count": 1867,
      "max": [
        0.9906359910964966,
        1.0
      ],
      "min": [
        2.4000000848900527e-05,
        0.0
      ],
      "type": "VEC2"
    },
    {
      "bufferView": 0,
      "byteOffset": 98688,
      "componentType": 5125,
      "count": 8994,
      "type": "SCALAR"
    },
    {
      "bufferView": 2,
      "byteOffset": 218904,
      "componentType": 5126,
      "count": 129,
      "max": [
        0.02542399987578392,
        0.14977200329303741,
        -0.007253999821841717
      ],
      "min": [
        0.02394700050354004,
        0.14829400181770325,
        -0.00750999990850687
      ],
      "type": "VEC3"
    },
    {
      "bufferView": 2,
      "byteOffset": 220452,
      "componentType": 5126,
      "count": 129,
      "max": [
        0.5844970941543579,
        0.5843837857246399,
        -0.8113953471183777
      ],
      "min": [
        -0.5844970941543579,
        -0.5843178629875183,
        -1.0
      ],
      "type": "VEC3"
    },
    {
      "bufferView": 1,
      "byteOffset": 73104,
      "componentType": 5126,
      "count": 129,
      "max": [
        1.0,
        1.0
      ],
      "min": [
        0.0,
        0.0
      ],
      "type": "VEC2"
    },
    {
      "bufferView": 0,
      "byteOffset": 134664,
      "componentType": 5125,
      "count": 672,
      "type": "SCALAR"
    },
    {
      "bufferView": 2,
      "byteOffset": 222000,
      "componentType": 5126,
      "count": 4434,
      "max": [
        0.032919999212026596,
        0.15726600587368011,
        -0.007184999994933605
      ],
      "min": [
        -0.0016980000073090196,
        0.12152499705553055,
        -0.008983000181615353
      ],
      "type": "VEC3"
    },
    {
      "bufferView": 2,
      "byteOffset": 275208,
      "componentType": 5126,
      "count": 4434,
      "max": [
        1.0,
        1.0,
        0.5874673128128052
      ],
      "min": [
        -1.0,
        -1.0,
        -1.0
      ],
      "type": "VEC3"
    },
    {
      "bufferView": 3,
      "byteOffset": 117216,
      "componentType": 5126,
      "count": 4434,
      "max": [
        0.8350894451141357,
        0.7001393437385559,
        1.0,
        -1.0
      ],
      "min": [
        -0.56856769323349,
        -0.8700745105743408,
        -1.0,
        -1.0
      ],
      "type": "VEC4"
    },
    {
      "bufferView": 1,
      "byteOffset": 74136,
      "componentType": 5126,
      "count": 4434,
      "max": [
        79.31596374511719,
        78.17975616455078
      ],
      "min": [
        0.0,
        35.25347900390625
      ],
      "type": "VEC2"
    },
    {
      "bufferView": 0,
      "byteOffset": 137352,
      "componentType": 5125,
      "count": 16128,
      "type": "SCALAR"
    },
    {
      "bufferView": 2,
      "byteOffset": 328416,
      "componentType": 5126,
      "count": 313,
      "max": [
        -0.021911999210715294,
        0.1529570072889328,
        -0.006916999816894531
      ],
      "min": [
        -0.02857300080358982,
        0.14629599452018738,
        -0.00710600009188056
      ],
      "type": "VEC3"
    },
    {
      "bufferView": 2,
      "byteOffset": 332172,
      "componentType": 5126,
      "count": 313,
      "max": [
        1.0,
        1.0,
        0.0
      ],
      "min": [
        -1.0,
        -1.0,
        -1.0
      ],
      "type": "VEC3"
    },
    {
      "bufferView": 1,
      "byteOffset": 109608,
      "componentType": 5126,
      "count": 313,
      "max": [
        8.917440414428711,
        8.909160614013672
      ],
      "min": [
        0.13400998711585999,
        3.8546700477600098
      ],
      "type": "VEC2"
    },
    {
      "bufferView": 0,
      "byteOffset": 201864,
      "componentType": 5125,
      "count": 1056,
      "type": "SCALAR"
    },
    {
      "bufferView": 2,
      "byteOffset": 335928,
      "componentType": 5126,
      "count": 397,
      "max": [
        -0.021911999210715294,
        0.1529570072889328,
        -0.006357000209391117
      ],
      "min": [
        -0.02857300080358982,
        0.14629599452018738,
        -0.006814999971538782
      ],
      "type": "VEC3"
    },
    {
      "bufferView": 2,
      "byteOffset": 340692,
      "componentType": 5126,
      "count": 397,
      "max": [
        0.9677011370658875,
        0.9676766991615295,
        -0.2520127594470978
      ],
      "min": [
        -0.9676766991615295,
        -0.9676766991615295,
        -1.0
      ],
      "type": "VEC3"
    },
    {
      "bufferView": 3,
      "byteOffset": 188160,
      "componentType": 5126,
      "count": 397,
      "max": [
        0.7647058963775635,
        0.7647058963775635,
        0.7647058963775635,
        0.0
      ],
      "min": [
        0.0,
        0.0,
        0.0,
        0.0
      ],
      "type": "VEC4"
    },
    {
      "bufferView": 1,
      "byteOffset": 112112,
      "componentType": 5126,
      "count": 397,
      "max": [
        0.3034070134162903,
        0.29697200655937195
      ],
      "min": [
        0.01485500019043684,
        0.10975100100040436
      ],
      "type": "VEC2"
    },
    {
      "bufferView": 0,
      "byteOffset": 206088,
      "componentType": 5125,
      "count": 2016,
      "type": "SCALAR"
    },
    {
      "bufferView": 2,
      "byteOffset": 345456,
      "componentType": 5126,
      "count": 3316,
      "max": [
        0.031831998378038406,
        0.15617799758911133,
        -0.005396000109612942
      ],
      "min": [
        -0.0006619999767281115,
        0.12260899692773819,
        -0.009217999875545502
      ],
      "type": "VEC3"
    },
    {
      "bufferView": 2,
      "byteOffset": 385248,
      "componentType": 5126,
      "count": 3316,
      "max": [
        1.0,
        1.0,
        0.0
      ],
      "min": [
        -1.0,
        -1.0,
        -1.0
      ],
      "type": "VEC3"
    },
    {
      "bufferView": 3,
      "byteOffset": 194512,
      "componentType": 5126,
      "count": 3316,
      "max": [
        0.9960784316062927,
        0.9960784316062927,
        0.9960784316062927,
        0.0
      ],
      "min": [
        0.0,
        0.0,
        0.0,
        0.0
      ],
      "type": "VEC4"
    },
    {
      "bufferView": 1,
      "byteOffset": 115288,
      "componentType": 5126,
      "count": 3316,
      "max": [
        67.51229858398438,
        40.5723991394043
      ],
      "min": [
        67.44660186767578,
        34.46630096435547
      ],
      "type": "VEC2"
    },
    {
      "bufferView": 0,
      "byteOffset": 214152,
      "componentType": 5125,
      "count": 10938,
      "type": "SCALAR"
    },
    {
      "bufferView": 2,
      "byteOffset": 425040,
      "componentType": 5126,
      "count": 588,
      "max": [
        0.031122999265789986,
        0.15546900033950806,
        -0.00913199968636036
      ],
      "min": [
        0.00025599999935366213,
        0.12347999960184097,
        -0.009169000200927258
      ],
      "type": "VEC3"
    },
    {
      "bufferView": 2,
      "byteOffset": 432096,
      "componentType": 5126,
      "count": 588,
      "max": [
        0.7019885182380676,
        0.7020891904830933,
        -0.7120003700256348
      ],
      "min": [
        -0.7019885182380676,
        -0.7020891904830933,
        -1.0
      ],
      "type": "VEC3"
    },
    {
      "bufferView": 1,
      "byteOffset": 141816,
      "componentType": 5126,
      "count": 588,
      "max": [
        0.6750519871711731,
        0.40642601251602173
      ],
      "min": [
        0.6744670271873474,
        0.3399370014667511
      ],
      "type": "VEC2"
    },
    {
      "bufferView": 0,
      "byteOffset": 257904,
      "componentType": 5125,
      "count": 1710,
      "type": "SCALAR"
    },
    {
      "bufferView": 2,
      "byteOffset": 439152,
      "componentType": 5126,
      "count": 2149,
      "max": [
        0.029657000675797462,
        0.1540050059556961,
        -0.006295999977737665
      ],
      "min": [
        0.0020890000741928816,
        0.12588000297546387,
        -0.008297000080347061
      ],
      "type": "VEC3"
    },
    {
      "bufferView": 2,
      "byteOffset": 464940,
      "componentType": 5126,
      "count": 2149,
      "max": [
        1.0,
        1.0,
        1.0
      ],
      "min": [
        -1.0,
        -1.0,
        -1.0
      ],
      "type": "VEC3"
    },
    {
      "bufferView": 3,
      "byteOffset": 247568,
      "componentType": 5126,
      "count": 2149,
      "max": [
        0.8826360702514648,
        0.7108352780342102,
        1.0,
        -1.0
      ],
      "min": [
        -0.0,
        -1.0,
        -1.0,
        -1.0
      ],
      "type": "VEC4"
    },
    {
      "bufferView": 3,
      "byteOffset": 281952,
      "componentType": 5126,
      "count": 2149,
      "max": [
        0.9647058844566345,
        0.9647058844566345,
        0.9647058844566345,
        0.0
      ],
      "min": [
        0.0,
        0.0,
        0.0,
        0.0
      ],
      "type": "VEC4"
    },
    {
      "bufferView": 1,
      "byteOffset": 146520,
      "componentType": 5126,
      "count": 2149,
      "max": [
        7000.0,
        7000.0
      ],
      "min": [
        0.0,
        195.593994140625
      ],
      "type": "VEC2"
    },
    {
      "bufferView": 0,
      "byteOffset": 264744,
      "componentType": 5125,
      "count": 7290,
      "type": "SCALAR"
    },
    {
      "bufferView": 2,
      "byteOffset": 490728,
      "componentType": 5126,
      "count": 106,
      "max": [
        -0.02432600036263466,
        0.1505420058965683,
        -0.006341000087559223
      ],
      "min": [
        -0.02615799941122532,
        0.14871099591255188,
        -0.006787000223994255
      ],
      "type": "VEC3"
    },
    {
      "bufferView": 2,
      "byteOffset": 492000,
      "componentType": 5126,
      "count": 106,
      "max": [
        0.7848622798919678,
        0.7848622798919678,
        -0.6196696758270264
      ],
      "min": [
        -0.7848622798919678,
        -0.7848622798919678,
        -1.0
      ],
      "type": "VEC3"
    },
    {
      "bufferView": 3,
      "byteOffset": 316336,
      "componentType": 5126,
      "count": 106,
      "max": [
        0.9843137264251709,
        0.9843137264251709,
        0.9843137264251709,
        0.0
      ],
      "min": [
        0.0117647061124444,
        0.0117647061124444,
        0.0117647061124444,
        0.0
      ],
      "type": "VEC4"
    },
    {
      "bufferView": 1,
      "byteOffset": 163712,
      "componentType": 5126,
      "count": 106,
      "max": [
        0.6749359965324402,
        0.40530699491500854
      ],
      "min": [
        0.6748830080032349,
        0.4018230140209198
      ],
      "type": "VEC2"
    },
    {
      "bufferView": 0,
      "byteOffset": 293904,
      "componentType": 5125,
      "count": 480,
      "type": "SCALAR"
    },
    {
      "bufferView": 2,
      "byteOffset": 493272,
      "componentType": 5126,
      "count": 96,
      "max": [
        -0.022859999909996986,
        0.1520089954137802,
        -0.007009999826550484
      ],
      "min": [
        -0.02762500010430813,
        0.14724400639533997,
        -0.007009999826550484
      ],
      "type": "VEC3"
    },
    {
      "bufferView": 2,
      "byteOffset": 494424,
      "componentType": 5126,
      "count": 96,
      "max": [
        -0.0,
        0.0,
        -1.0
      ],
      "min": [
        -0.0,
        0.0,
        -1.0
      ],
      "type": "VEC3"
    },
    {
      "bufferView": 1,
      "byteOffset": 164560,
      "componentType": 5126,
      "count": 96,
      "max": [
        0.21100500226020813,
        0.294948011636734
      ],
      "min": [
        0.1928589940071106,
        0.27680298686027527
      ],
      "type": "VEC2"
    },
    {
      "bufferView": 0,
      "byteOffset": 295824,
      "componentType": 5125,
      "count": 288,
      "type": "SCALAR"
    },
    {
      "bufferView": 2,
      "byteOffset": 495576,
      "componentType": 5126,
      "count": 89,
      "max": [
        -0.020128101110458374,
        0.1383053958415985,
        -0.006926000118255615
      ],
      "min": [
        -0.024128101766109467,
        0.13430538773536682,
        -0.006926000118255615
      ],
      "type": "VEC3"
    },
    {
      "bufferView": 2,
      "byteOffset": 496644,
      "componentType": 5126,
      "count": 89,
      "max": [
        -0.0,
        0.0,
        -1.0
      ],
      "min": [
        -0.0,
        0.0,
        -1.0
      ],
      "type": "VEC3"
    },
    {
      "bufferView": 3,
      "byteOffset": 318032,
      "componentType": 5126,
      "count": 89,
      "max": [
        0.9882352948188782,
        0.9882352948188782,
        0.9882352948188782,
        0.0
      ],
      "min": [
        0.9803921580314636,
        0.9803921580314636,
        0.9803921580314636,
        0.0
      ],
      "type": "VEC4"
    },
    {
      "bufferView": 1,
      "byteOffset": 165328,
      "componentType": 5126,
      "count": 89,
      "max": [
        1.0,
        1.0
      ],
      "min": [
        0.0,
        0.0
      ],
      "type": "VEC2"
    },
    {
      "bufferView": 0,
      "byteOffset": 296976,
      "componentType": 5125,
      "count": 120,
      "type": "SCALAR"
    },
    {
      "bufferView": 2,
      "byteOffset": 497712,
      "componentType": 5126,
      "count": 64,
      "max": [
        0.007637000177055597,
        4.400000034365803e-05,
        0.0007149999728426337
      ],
      "min": [
        0.006198999937623739,
        4.400000034365803e-05,
        -0.0007210000185295939
      ],
      "type": "VEC3"
    },
    {
      "bufferView": 2,
      "byteOffset": 498480,
      "componentType": 5126,
      "count": 64,
      "max": [
        -0.0,
        -1.0,
        0.0
      ],
      "min": [
        -0.0,
        -1.0,
        0.0
      ],
      "type": "VEC3"
    },
    {
      "bufferView": 1,
      "byteOffset": 166040,
      "componentType": 5126,
      "count": 64,
      "max": [
        0.6749320030212402,
        0.3492540121078491
      ],
      "min": [
        0.6748639941215515,
        0.3491860032081604
      ],
      "type": "VEC2"
    },
    {
      "bufferView": 0,
      "byteOffset": 297456,
      "componentType": 5125,
      "count": 192,
      "type": "SCALAR"
    },
    {
      "bufferView": 2,
      "byteOffset": 499248,
      "componentType": 5126,
      "count": 64,
      "max": [
        -0.006209999788552523,
        4.400000034365803e-05,
        0.0007179999956861138
      ],
      "min": [
        -0.0076489998027682304,
        4.400000034365803e-05,
        -0.0007179999956861138
      ],
      "type": "VEC3"
    },
    {
      "bufferView": 2,
      "byteOffset": 500016,
      "componentType": 5126,
      "count": 64,
      "max": [
        -0.0,
        -1.0,
        0.0
      ],
      "min": [
        -0.0,
        -1.0,
        0.0
      ],
      "type": "VEC3"
    },
    {
      "bufferView": 1,
      "byteOffset": 166552,
      "componentType": 5126,
      "count": 64,
      "max": [
        0.6749240159988403,
        0.3270539939403534
      ],
      "min": [
        0.6748560070991516,
        0.3269850015640259
      ],
      "type": "VEC2"
    },
    {
      "bufferView": 0,
      "byteOffset": 298224,
      "componentType": 5125,
      "count": 192,
      "type": "SCALAR"
    },
    {
      "bufferView": 2,
      "byteOffset": 500784,
      "componentType": 5126,
      "count": 804,
      "max": [
        0.023485999554395676,
        0.0006769999745301902,
        0.0006910000229254365
      ],
      "min": [
        -0.023485999554395676,
        0.0006769999745301902,
        -0.0006910000229254365
      ],
      "type": "VEC3"
    },
    {
      "bufferView": 2,
      "byteOffset": 510432,
      "componentType": 5126,
      "count": 804,
      "max": [
        -0.0,
        -1.0,
        0.0
      ],
      "min": [
        -0.0,
        -1.0,
        0.0
      ],
      "type": "VEC3"
    },
    {
      "bufferView": 3,
      "byteOffset": 319456,
      "componentType": 5126,
      "count": 804,
      "max": [
        0.9999895095825195,
        0.0,
        0.05232773721218109,
        -1.0
      ],
      "min": [
        -0.9999895095825195,
        0.0,
        -0.0878712609410286,
        -1.0
      ],
      "type": "VEC4"
    },
    {
      "bufferView": 3,
      "byteOffset": 332320,
      "componentType": 5126,
      "count": 804,
      "max": [
        0.5411764979362488,
        0.5411764979362488,
        0.5411764979362488,
        0.0
      ],
      "min": [
        0.14901961386203766,
        0.14901961386203766,
        0.14901961386203766,
        0.0
      ],
      "type": "VEC4"
    },
    {
      "bufferView": 1,
      "byteOffset": 167064,
      "componentType": 5126,
      "count": 804,
      "max": [
        2.983649969100952,
        2.9926650524139404
      ],
      "min": [
        -0.01374599989503622,
        0.007325999904423952
      ],
      "type": "VEC2"
    },
    {
      "bufferView": 1,
      "byteOffset": 173496,
      "componentType": 5126,
      "count": 804,
      "max": [
        2.983649969100952,
        2.9926650524139404
      ],
      "min": [
        -0.01374599989503622,
        0.007325999904423952
      ],
      "type": "VEC2"
    },
    {
      "bufferView": 0,
      "byteOffset": 298992,
      "componentType": 5125,
      "count": 3960,
      "type": "SCALAR"
    },
    {
      "bufferView": 2,
      "byteOffset": 520080,
      "componentType": 5126,
      "count": 525,
      "max": [
        0.004790999926626682,
        0.00025099999038502574,
        0.0018520000157877803
      ],
      "min": [
        -0.004790999926626682,
        -1.8000000636675395e-05,
        -0.0018520000157877803
      ],
      "type": "VEC3"
    },
    {
      "bufferView": 2,
      "byteOffset": 526380,
      "componentType": 5126,
      "count": 525,
      "max": [
        0.9978570938110352,
        0.021300291642546654,
        1.0
      ],
      "min": [
        -0.9978570938110352,
        -1.0,
        -1.0
      ],
      "type": "VEC3"
    },
    {
      "bufferView": 3,
      "byteOffset": 345184,
      "componentType": 5126,
      "count": 525,
      "max": [
        1.0,
        1.0,
        1.0,
        0.0
      ],
      "min": [
        0.054901961237192154,
        0.054901961237192154,
        0.054901961237192154,
        0.0
      ],
      "type": "VEC4"
    },
    {
      "bufferView": 1,
      "byteOffset": 179928,
      "componentType": 5126,
      "count": 525,
      "max": [
        0.6749330163002014,
        0.4010240137577057
      ],
      "min": [
        0.6746609807014465,
        0.3307340145111084
      ],
      "type": "VEC2"
    },
    {
      "bufferView": 0,
      "byteOffset": 314832,
      "componentType": 5125,
      "count": 1230,
      "type": "SCALAR"
    },
    {
      "bufferView": 2,
      "byteOffset": 532680,
      "componentType": 5126,
      "count": 421,
      "max": [
        0.004356000106781721,
        0.006922000087797642,
        0.0013989999424666166
      ],
      "min": [
        -0.0043299999088048935,
        0.0007730000070296228,
        -0.0014130000490695238
      ],
      "type": "VEC3"
    },
    {
      "bufferView": 2,
      "byteOffset": 537732,
      "componentType": 5126,
      "count": 421,
      "max": [
        1.0,
        0.39901864528656006,
        1.0
      ],
      "min": [
        -1.0,
        -1.0,
        -1.0
      ],
      "type": "VEC3"
    },
    {
      "bufferView": 3,
      "byteOffset": 353584,
      "componentType": 5126,
      "count": 421,
      "max": [
        0.8901960849761963,
        0.8901960849761963,
        0.8901960849761963,
        0.0
      ],
      "min": [
        0.0,
        0.0,
        0.0,
        0.0
      ],
      "type": "VEC4"
    },
    {
      "bufferView": 1,
      "byteOffset": 184128,
      "componentType": 5126,
      "count": 421,
      "max": [
        0.6749969720840454,
        0.4050860106945038
      ],
      "min": [
        0.6744660139083862,
        0.3250350058078766
      ],
      "type": "VEC2"
    },
    {
      "bufferView": 0,
      "byteOffset": 319752,
      "componentType": 5125,
      "count": 1011,
      "type": "SCALAR"
    },
    {
      "bufferView": 2,
      "byteOffset": 542784,
      "componentType": 5126,
      "count": 1056,
      "max": [
        0.0029360000044107437,
        0.0067369998432695866,
        0.0003239999932702631
      ],
      "min": [
        -0.0029360000044107437,
        0.0010029999539256096,
        -0.0003370000049471855
      ],
      "type": "VEC3"
    },
    {
      "bufferView": 2,
      "byteOffset": 555456,
      "componentType": 5126,
      "count": 1056,
      "max": [
        1.0,
        0.0,
        1.0
      ],
      "min": [
        -1.0,
        -1.0,
        -1.0
      ],
      "type": "VEC3"
    },
    {
      "bufferView": 3,
      "byteOffset": 360320,
      "componentType": 5126,
      "count": 1056,
      "max": [
        0.47058823704719543,
        0.47058823704719543,
        0.47058823704719543,
        0.0
      ],
      "min": [
        0.0,
        0.0,
        0.0,
        0.0
      ],
      "type": "VEC4"
    },
    {
      "bufferView": 1,
      "byteOffset": 187496,
      "componentType": 5126,
      "count": 1056,
      "max": [
        0.6749089956283569,
        0.40435901284217834
      ],
      "min": [
        0.6746230125427246,
        0.3273540139198303
      ],
      "type": "VEC2"
    },
    {
      "bufferView": 0,
      "byteOffset": 323796,
      "componentType": 5125,
      "count": 1584,
      "type": "SCALAR"
    },
    {
      "bufferView": 2,
      "byteOffset": 568128,
      "componentType": 5126,
      "count": 996,
      "max": [
        0.031122000887989998,
        0.15546800196170807,
        -0.008042999543249607
      ],
      "min": [
        0.00025599999935366213,
        0.12334500253200531,
        -0.008985999971628189
      ],
      "type": "VEC3"
    },
    {
      "bufferView": 2,
      "byteOffset": 580080,
      "componentType": 5126,
      "count": 996,
      "max": [
        1.0,
        1.0,
        0.0
      ],
      "min": [
        -1.0,
        -1.0,
        -1.0
      ],
      "type": "VEC3"
    },
    {
      "bufferView": 3,
      "byteOffset": 377216,
      "componentType": 5126,
      "count": 996,
      "max": [
        0.9803921580314636,
        0.9803921580314636,
        0.9803921580314636,
        0.0
      ],
      "min": [
        0.0117647061124444,
        0.0117647061124444,
        0.0117647061124444,
        0.0
      ],
      "type": "VEC4"
    },
    {
      "bufferView": 1,
      "byteOffset": 195944,
      "componentType": 5126,
      "count": 996,
      "max": [
        1.0,
        0.4044469892978668
      ],
      "min": [
        0.0,
        0.0
      ],
      "type": "VEC2"
    },
    {
      "bufferView": 0,
      "byteOffset": 330132,
      "componentType": 5125,
      "count": 3072,
      "type": "SCALAR"
    },
    {
      "bufferView": 2,
      "byteOffset": 592032,
      "componentType": 5126,
      "count": 32,
      "max": [
        -0.03835200145840645,
        0.042716000229120255,
        0.000577000027988106
      ],
      "min": [
        -0.03835200145840645,
        0.0415630005300045,
        -0.000577000027988106
      ],
      "type": "VEC3"
    },
    {
      "bufferView": 2,
      "byteOffset": 592416,
      "componentType": 5126,
      "count": 32,
      "max": [
        -1.0,
        0.0,
        9.999999747378752e-05
      ],
      "min": [
        -1.0,
        0.0,
        0.0
      ],
      "type": "VEC3"
    },
    {
      "bufferView": 3,
      "byteOffset": 393152,
      "componentType": 5126,
      "count": 32,
      "max": [
        0.5137255191802979,
        0.5137255191802979,
        0.5137255191802979,
        0.0
      ],
      "min": [
        0.250980406999588,
        0.250980406999588,
        0.250980406999588,
        0.0
      ],
      "type": "VEC4"
    },
    {
      "bufferView": 1,
      "byteOffset": 203912,
      "componentType": 5126,
      "count": 32,
      "max": [
        0.0,
        1.0
      ],
      "min": [
        0.0,
        1.0
      ],
      "type": "VEC2"
    },
    {
      "bufferView": 0,
      "byteOffset": 342420,
      "componentType": 5125,
      "count": 93,
      "type": "SCALAR"
    },
    {
      "bufferView": 2,
      "byteOffset": 592800,
      "componentType": 5126,
      "count": 129,
      "max": [
        0.026288000866770744,
        0.13134199380874634,
        -0.006105000153183937
      ],
      "min": [
        0.023081999272108078,
        0.12813599407672882,
        -0.007069999817758799
      ],
      "type": "VEC3"
    },
    {
      "bufferView": 2,
      "byteOffset": 594348,
      "componentType": 5126,
      "count": 129,
      "max": [
        0.9495596885681152,
        0.9495596885681152,
        -0.31358668208122253
      ],
      "min": [
        -0.9495596885681152,
        -0.9495596885681152,
        -1.0
      ],
      "type": "VEC3"
    },
    {
      "bufferView": 1,
      "byteOffset": 204168,
      "componentType": 5126,
      "count": 129,
      "max": [
        0.9868050217628479,
        0.9868050217628479
      ],
      "min": [
        0.013194999657571316,
        0.013194999657571316
      ],
      "type": "VEC2"
    },
    {
      "bufferView": 0,
      "byteOffset": 342792,
      "componentType": 5125,
      "count": 672,
      "type": "SCALAR"
    },
    {
      "bufferView": 2,
      "byteOffset": 595896,
      "componentType": 5126,
      "count": 129,
      "max": [
        0.009681000374257565,
        0.14253899455070496,
        -0.007825000211596489
      ],
      "min": [
        0.003343000076711178,
        0.13619999587535858,
        -0.008833000436425209
      ],
      "type": "VEC3"
    },
    {
      "bufferView": 2,
      "byteOffset": 597444,
      "componentType": 5126,
      "count": 129,
      "max": [
        0.5511180758476257,
        0.5511180758476257,
        -0.8343883752822876
      ],
      "min": [
        -0.5511180758476257,
        -0.5511180758476257,
        -1.0
      ],
      "type": "VEC3"
    },
    {
      "bufferView": 1,
      "byteOffset": 205200,
      "componentType": 5126,
      "count": 129,
      "max": [
        1.0,
        1.0
      ],
      "min": [
        0.0,
        0.0
      ],
      "type": "VEC2"
    },
    {
      "bufferView": 0,
      "byteOffset": 345480,
      "componentType": 5125,
      "count": 672,
      "type": "SCALAR"
    },
    {
      "bufferView": 2,
      "byteOffset": 598992,
      "componentType": 5126,
      "count": 313,
      "max": [
        -0.021911999210715294,
        0.13253800570964813,
        -0.006934999953955412
      ],
      "min": [
        -0.02857300080358982,
        0.1258769929409027,
        -0.007124000228941441
      ],
      "type": "VEC3"
    },
    {
      "bufferView": 2,
      "byteOffset": 602748,
      "componentType": 5126,
      "count": 313,
      "max": [
        1.0,
        1.0,
        0.0
      ],
      "min": [
        -1.0,
        -1.0,
        -1.0
      ],
      "type": "VEC3"
    },
    {
      "bufferView": 3,
      "byteOffset": 393664,
      "componentType": 5126,
      "count": 313,
      "max": [
        0.9882352948188782,
        0.9882352948188782,
        0.9882352948188782,
        0.0
      ],
      "min": [
        0.01568627543747425,
        0.01568627543747425,
        0.01568627543747425,
        0.0
      ],
      "type": "VEC4"
    },
    {
      "bufferView": 1,
      "byteOffset": 206232,
      "componentType": 5126,
      "count": 313,
      "max": [
        0.3026460111141205,
        0.29697200655937195
      ],
      "min": [
        0.0,
        0.12848900258541107
      ],
      "type": "VEC2"
    },
    {
      "bufferView": 0,
      "byteOffset": 348168,
      "componentType": 5125,
      "count": 1056,
      "type": "SCALAR"
    },
    {
      "bufferView": 2,
      "byteOffset": 606504,
      "componentType": 5126,
      "count": 161,
      "max": [
        0.0365150012075901,
        0.1608780026435852,
        0.0043219998478889465
      ],
      "min": [
        -0.0365150012075901,
        0.002391000045463443,
        0.0043219998478889465
      ],
      "type": "VEC3"
    },
    {
      "bufferView": 2,
      "byteOffset": 608436,
      "componentType": 5126,
      "count": 161,
      "max": [
        -0.0,
        0.0,
        1.0
      ],
      "min": [
        -0.0,
        0.0,
        1.0
      ],
      "type": "VEC3"
    },
    {
      "bufferView": 3,
      "byteOffset": 398672,
      "componentType": 5126,
      "count": 161,
      "max": [
        0.9921568632125854,
        0.9921568632125854,
        0.9921568632125854,
        0.0
      ],
      "min": [
        0.9843137264251709,
        0.9843137264251709,
        0.9843137264251709,
        0.0
      ],
      "type": "VEC4"
    },
    {
      "bufferView": 1,
      "byteOffset": 208736,
      "componentType": 5126,
      "count": 161,
      "max": [
        0.9994469881057739,
        0.9994469881057739
      ],
      "min": [
        0.0005530000198632479,
        0.0005530000198632479
      ],
      "type": "VEC2"
    },
    {
      "bufferView": 0,
      "byteOffset": 352392,
      "componentType": 5125,
      "count": 594,
      "type": "SCALAR"
    },
    {
      "bufferView": 2,
      "byteOffset": 610368,
      "componentType": 5126,
      "count": 33,
      "max": [
        -0.0248780008405447,
        0.1398089975118637,
        -0.006359000224620104
      ],
      "min": [
        -0.025606000795960426,
        0.13908100128173828,
        -0.006359000224620104
      ],
      "type": "VEC3"
    },
    {
      "bufferView": 2,
      "byteOffset": 610764,
      "componentType": 5126,
      "count": 33,
      "max": [
        -0.0,
        0.0,
        -1.0
      ],
      "min": [
        -0.0,
        0.0,
        -1.0
      ],
      "type": "VEC3"
    },
    {
      "bufferView": 3,
      "byteOffset": 401248,
      "componentType": 5126,
      "count": 33,
      "max": [
        0.21176470816135406,
        0.21176470816135406,
        0.21176470816135406,
        0.0
      ],
      "min": [
        0.13333334028720856,
        0.13333334028720856,
        0.13333334028720856,
        0.0
      ],
      "type": "VEC4"
    },
    {
      "bufferView": 1,
      "byteOffset": 210024,
      "componentType": 5126,
      "count": 33,
      "max": [
        0.09482099860906601,
        0.20215100049972534
      ],
      "min": [
        0.09158200025558472,
        0.19882799685001373
      ],
      "type": "VEC2"
    },
    {
      "bufferView": 0,
      "byteOffset": 354768,
      "componentType": 5125,
      "count": 96,
      "type": "SCALAR"
    },
    {
      "bufferView": 2,
      "byteOffset": 611160,
      "componentType": 5126,
      "count": 502,
      "max": [
        0.039002999663352966,
        0.059960998594760895,
        0.0014649999793618917
      ],
      "min": [
        0.03758399933576584,
        0.04291199892759323,
        -0.0014649999793618917
      ],
      "type": "VEC3"
    },
    {
      "bufferView": 2,
      "byteOffset": 617184,
      "componentType": 5126,
      "count": 502,
      "max": [
        0.9999955892562866,
        0.9999755620956421,
        0.999344527721405
      ],
      "min": [
        -0.0004000265325885266,
        -0.9999613761901855,
        -0.999362587928772
      ],
      "type": "VEC3"
    },
    {
      "bufferView": 3,
      "byteOffset": 401776,
      "componentType": 5126,
      "count": 502,
      "max": [
        0.9960784316062927,
        0.9960784316062927,
        0.9960784316062927,
        0.0
      ],
      "min": [
        0.0,
        0.0,
        0.0,
        0.0
      ],
      "type": "VEC4"
    },
    {
      "bufferView": 1,
      "byteOffset": 210288,
      "componentType": 5126,
      "count": 502,
      "max": [
        10.12393569946289,
        6.026805400848389
      ],
      "min": [
        10.120109558105469,
        4.958985328674316
      ],
      "type": "VEC2"
    },
    {
      "bufferView": 0,
      "byteOffset": 355152,
      "componentType": 5125,
      "count": 1974,
      "type": "SCALAR"
    },
    {
      "bufferView": 2,
      "byteOffset": 623208,
      "componentType": 5126,
      "count": 68,
      "max": [
        0.0005530000198632479,
        0.15833599865436554,
        0.0043219998478889465
      ],
      "min": [
        -0.0077240001410245895,
        0.15264900028705597,
        0.0043219998478889465
      ],
      "type": "VEC3"
    },
    {
      "bufferView": 2,
      "byteOffset": 624024,
      "componentType": 5126,
      "count": 68,
      "max": [
        -0.0,
        0.0,
        1.0
      ],
      "min": [
        -0.0,
        0.0,
        1.0
      ],
      "type": "VEC3"
    },
    {
      "bufferView": 3,
      "byteOffset": 409808,
      "componentType": 5126,
      "count": 68,
      "max": [
        0.9882352948188782,
        0.9882352948188782,
        0.9882352948188782,
        0.0
      ],
      "min": [
        0.9843137264251709,
        0.9843137264251709,
        0.9843137264251709,
        0.0
      ],
      "type": "VEC4"
    },
    {
      "bufferView": 1,
      "byteOffset": 214304,
      "componentType": 5126,
      "count": 68,
      "max": [
        0.31834301352500916,
        1.0
      ],
      "min": [
        0.0,
        0.29697200655937195
      ],
      "type": "VEC2"
    },
    {
      "bufferView": 0,
      "byteOffset": 363048,
      "componentType": 5125,
      "count": 300,
      "type": "SCALAR"
    },
    {
      "bufferView": 2,
      "byteOffset": 624840,
      "componentType": 5126,
      "count": 19542,
      "max": [
        0.0395050011575222,
        0.16333800554275513,
        0.0042500002309679985
      ],
      "min": [
        -0.03946299850940704,
        -1.4999999621068127e-05,
        -0.007184999994933605
      ],
      "type": "VEC3"
    },
    {
      "bufferView": 2,
      "byteOffset": 859344,
      "componentType": 5126,
      "count": 19542,
      "max": [
        1.0,
        1.0,
        1.0
      ],
      "min": [
        -1.0,
        -1.0,
        -1.0
      ],
      "type": "VEC3"
    },
    {
      "bufferView": 3,
      "byteOffset": 410896,
      "componentType": 5126,
      "count": 19542,
      "max": [
        1.0,
        1.0,
        0.9999989867210388,
        -1.0
      ],
      "min": [
        -1.0,
        -1.0,
        -1.0,
        -1.0
      ],
      "type": "VEC4"
    },
    {
      "bufferView": 3,
      "byteOffset": 723568,
      "componentType": 5126,
      "count": 19542,
      "max": [
        1.0,
        1.0,
        1.0,
        0.0
      ],
      "min": [
        0.0,
        0.0,
        0.0,
        0.0
      ],
      "type": "VEC4"
    },
    {
      "bufferView": 1,
      "byteOffset": 214848,
      "componentType": 5126,
      "count": 19542,
      "max": [
        94.66110229492188,
        115.0
      ],
      "min": [
        0.0,
        0.0
      ],
      "type": "VEC2"
    },
    {
      "bufferView": 0,
      "byteOffset": 364248,
      "componentType": 5125,
      "count": 83145,
      "type": "SCALAR"
    },
    {
      "bufferView": 2,
      "byteOffset": 1093848,
      "componentType": 5126,
      "count": 344,
      "max": [
        -0.021949000656604767,
        0.15291999280452728,
        -0.006823999807238579
      ],
      "min": [
        -0.028535999357700348,
        0.1463329941034317,
        -0.007009999826550484
      ],
      "type": "VEC3"
    },
    {
      "bufferView": 2,
      "byteOffset": 1097976,
      "componentType": 5126,
      "count": 344,
      "max": [
        1.0,
        1.0,
        0.0
      ],
      "min": [
        -1.0,
        -1.0,
        -1.0
      ],
      "type": "VEC3"
    },
    {
      "bufferView": 3,
      "byteOffset": 1036240,
      "componentType": 5126,
      "count": 344,
      "max": [
        0.9843137264251709,
        0.9843137264251709,
        0.9843137264251709,
        0.0
      ],
      "min": [
        0.01568627543747425,
        0.01568627543747425,
        0.01568627543747425,
        0.0
      ],
      "type": "VEC4"
    },
    {
      "bufferView": 1,
      "byteOffset": 371184,
      "componentType": 5126,
      "count": 344,
      "max": [
        59.12360382080078,
        23.871200561523438
      ],
      "min": [
        10.818639755249023,
        19.40679931640625
      ],
      "type": "VEC2"
    },
    {
      "bufferView": 0,
      "byteOffset": 696828,
      "componentType": 5125,
      "count": 1152,
      "type": "SCALAR"
    },
    {
      "bufferView": 2,
      "byteOffset": 1102104,
      "componentType": 5126,
      "count": 688,
      "max": [
        0.007974999956786633,
        0.0757799968123436,
        -0.004112999886274338
      ],
      "min": [
        -0.008337000384926796,
        0.055734001100063324,
        -0.0043750000186264515
      ],
      "type": "VEC3"
    },
    {
      "bufferView": 2,
      "byteOffset": 1110360,
      "componentType": 5126,
      "count": 688,
      "max": [
        0.9999604225158691,
        0.9987741708755493,
        0.0
      ],
      "min": [
        -0.9997878670692444,
        -0.9999985694885254,
        -1.0
      ],
      "type": "VEC3"
    },
    {
      "bufferView": 3,
      "byteOffset": 1041744,
      "componentType": 5126,
      "count": 688,
      "max": [
        0.9960784316062927,
        0.9960784316062927,
        0.9960784316062927,
        0.0
      ],
      "min": [
        0.364705890417099,
        0.364705890417099,
        0.364705890417099,
        0.0
      ],
      "type": "VEC4"
    },
    {
      "bufferView": 1,
      "byteOffset": 373936,
      "componentType": 5126,
      "count": 688,
      "max": [
        1.0,
        1.0
      ],
      "min": [
        0.083467997610569,
        0.05767200142145157
      ],
      "type": "VEC2"
    },
    {
      "bufferView": 0,
      "byteOffset": 701436,
      "componentType": 5125,
      "count": 2292,
      "type": "SCALAR"
    },
    {
      "bufferView": 2,
      "byteOffset": 1118616,
      "componentType": 5126,
      "count": 1010,
      "max": [
        0.007674000225961208,
        0.00025099999038502574,
        0.0007580000092275441
      ],
      "min": [
        -0.0076859998516738415,
        4.400000034365803e-05,
        -0.0007609999738633633
      ],
      "type": "VEC3"
    },
    {
      "bufferView": 2,
      "byteOffset": 1130736,
      "componentType": 5126,
      "count": 1010,
      "max": [
        0.9989229440689087,
        9.999928442994133e-05,
        1.0
      ],
      "min": [
        -0.9989229440689087,
        -1.0,
        -1.0
      ],
      "type": "VEC3"
    },
    {
      "bufferView": 3,
      "byteOffset": 1052752,
      "componentType": 5126,
      "count": 1010,
      "max": [
        0.8352941274642944,
        0.8352941274642944,
        0.8352941274642944,
        0.0
      ],
      "min": [
        0.0,
        0.0,
        0.0,
        0.0
      ],
      "type": "VEC4"
    },
    {
      "bufferView": 1,
      "byteOffset": 379440,
      "componentType": 5126,
      "count": 1010,
      "max": [
        0.6749140024185181,
        0.37175101041793823
      ],
      "min": [
        0.6745100021362305,
        0.33031898736953735
      ],
      "type": "VEC2"
    },
    {
      "bufferView": 0,
      "byteOffset": 710604,
      "componentType": 5125,
      "count": 2880,
      "type": "SCALAR"
    },
    {
      "bufferView": 2,
      "byteOffset": 1142856,
      "componentType": 5126,
      "count": 249,
      "max": [
        0.038982998579740524,
        0.05980199947953224,
        0.0013089999556541443
      ],
      "min": [
        0.03866500034928322,
        0.04307100176811218,
        -0.0013089999556541443
      ],
      "type": "VEC3"
    },
    {
      "bufferView": 2,
      "byteOffset": 1145844,
      "componentType": 5126,
      "count": 249,
      "max": [
        1.0,
        0.9890592098236084,
        0.9908097982406616
      ],
      "min": [
        0.12950177490711212,
        -0.9890576601028442,
        -0.9908064007759094
      ],
      "type": "VEC3"
    },
    {
      "bufferView": 3,
      "byteOffset": 1068912,
      "componentType": 5126,
      "count": 249,
      "max": [
        0.9921568632125854,
        0.9921568632125854,
        0.9921568632125854,
        0.0
      ],
      "min": [
        0.01568627543747425,
        0.01568627543747425,
        0.01568627543747425,
        0.0
      ],
      "type": "VEC4"
    },
    {
      "bufferView": 1,
      "byteOffset": 387520,
      "componentType": 5126,
      "count": 249,
      "max": [
        0.6749140024185181,
        0.40241798758506775
      ],
      "min": [
        0.6747440099716187,
        0.3275580108165741
      ],
      "type": "VEC2"
    },
    {
      "bufferView": 0,
      "byteOffset": 722124,
      "componentType": 5125,
      "count": 996,
      "type": "SCALAR"
    },
    {
      "bufferView": 2,
      "byteOffset": 1148832,
      "componentType": 5126,
      "count": 1553,
      "max": [
        0.030551999807357788,
        0.13576200604438782,
        -0.008050000295042992
      ],
      "min": [
        0.018845999613404274,
        0.12380299717187881,
        -0.008198999799787998
      ],
      "type": "VEC3"
    },
    {
      "bufferView": 2,
      "byteOffset": 1167468,
      "componentType": 5126,
      "count": 1553,
      "max": [
        0.9989275932312012,
        0.9994184374809265,
        0.0
      ],
      "min": [
        -0.9998343586921692,
        -0.999872088432312,
        -1.0
      ],
      "type": "VEC3"
    },
    {
      "bufferView": 3,
      "byteOffset": 1072896,
      "componentType": 5126,
      "count": 1553,
      "max": [
        0.8967357873916626,
        0.8857923150062561,
        0.999999463558197,
        -1.0
      ],
      "min": [
        -0.14292633533477783,
        -0.9997872710227966,
        -0.9999911785125732,
        -1.0
      ],
      "type": "VEC4"
    },
    {
      "bufferView": 3,
      "byteOffset": 1097744,
      "componentType": 5126,
      "count": 1553,
      "max": [
        0.9803921580314636,
        0.9803921580314636,
        0.9803921580314636,
        0.0
      ],
      "min": [
        0.4000000059604645,
        0.4000000059604645,
        0.4000000059604645,
        0.0
      ],
      "type": "VEC4"
    },
    {
      "bufferView": 1,
      "byteOffset": 389512,
      "componentType": 5126,
      "count": 1553,
      "max": [
        5961.66162109375,
        7000.0
      ],
      "min": [
        0.0,
        0.0
      ],
      "type": "VEC2"
    },
    {
      "bufferView": 0,
      "byteOffset": 726108,
      "componentType": 5125,
      "count": 5223,
      "type": "SCALAR"
    },
    {
      "bufferView": 2,
      "byteOffset": 1186104,
      "componentType": 5126,
      "count": 72,
      "max": [
        0.007586999796330929,
        0.15833599865436554,
        0.0043219998478889465
      ],
      "min": [
        0.0019000000320374966,
        0.15264900028705597,
        0.0040790000930428505
      ],
      "type": "VEC3"
    },
    {
      "bufferView": 2,
      "byteOffset": 1186968,
      "componentType": 5126,
      "count": 72,
      "max": [
        1.0,
        1.0,
        0.0
      ],
      "min": [
        -1.0,
        -1.0,
        0.0
      ],
      "type": "VEC3"
    },
    {
      "bufferView": 3,
      "byteOffset": 1122592,
      "componentType": 5126,
      "count": 72,
      "max": [
        0.501960813999176,
        0.501960813999176,
        0.501960813999176,
        0.0
      ],
      "min": [
        0.4156862795352936,
        0.4156862795352936,
        0.4156862795352936,
        0.0
      ],
      "type": "VEC4"
    },
    {
      "bufferView": 1,
      "byteOffset": 401936,
      "componentType": 5126,
      "count": 72,
      "max": [
        0.6744660139083862,
        0.4356530010700226
      ],
      "min": [
        0.3052389919757843,
        0.072953000664711
      ],
      "type": "VEC2"
    },
    {
      "bufferView": 0,
      "byteOffset": 747000,
      "componentType": 5125,
      "count": 192,
      "type": "SCALAR"
    },
    {
      "bufferView": 2,
      "byteOffset": 1187832,
      "componentType": 5126,
      "count": 225,
      "max": [
        0.007586999796330929,
        0.15833599865436554,
        0.0040790000930428505
      ],
      "min": [
        0.0019000000320374966,
        0.15264900028705597,
        0.0037380000576376915
      ],
      "type": "VEC3"
    },
    {
      "bufferView": 2,
      "byteOffset": 1190532,
      "componentType": 5126,
      "count": 225,
      "max": [
        0.49468451738357544,
        0.49468451738357544,
        1.0
      ],
      "min": [
        -0.49468451738357544,
        -0.49468451738357544,
        0.8690083026885986
      ],
      "type": "VEC3"
    },
    {
      "bufferView": 3,
      "byteOffset": 1123744,
      "componentType": 5126,
      "count": 225,
      "max": [
        0.9954129457473755,
        0.10514068603515625,
        0.49296337366104126,
        -1.0
      ],
      "min": [
        0.8657787442207336,
        0.08447941392660141,
        -0.49285688996315,
        -1.0
      ],
      "type": "VEC4"
    },
    {
      "bufferView": 3,
      "byteOffset": 1127344,
      "componentType": 5126,
      "count": 225,
      "max": [
        0.9803921580314636,
        0.9803921580314636,
        0.9803921580314636,
        0.0
      ],
      "min": [
        0.0,
        0.0,
        0.0,
        0.0
      ],
      "type": "VEC4"
    },
    {
      "bufferView": 1,
      "byteOffset": 402512,
      "componentType": 5126,
      "count": 225,
      "max": [
        4446.07080078125,
        3049.571044921875
      ],
      "min": [
        2228.401123046875,
        831.9010009765625
      ],
      "type": "VEC2"
    },
    {
      "bufferView": 0,
      "byteOffset": 747768,
      "componentType": 5125,
      "count": 864,
      "type": "SCALAR"
    },
    {
      "bufferView": 2,
      "byteOffset": 1193232,
      "componentType": 5126,
      "count": 716,
      "max": [
        0.02360999956727028,
        0.00013499999477062374,
        0.0008149999775923789
      ],
      "min": [
        -0.02359900064766407,
        -1.4999999621068127e-05,
        -0.0008159999852068722
      ],
      "type": "VEC3"
    },
    {
      "bufferView": 2,
      "byteOffset": 1201824,
      "componentType": 5126,
      "count": 716,
      "max": [
        0.7054047584533691,
        -0.708770751953125,
        0.7054047584533691
      ],
      "min": [
        -0.7054047584533691,
        -0.7128239870071411,
        -0.7054047584533691
      ],
      "type": "VEC3"
    },
    {
      "bufferView": 3,
      "byteOffset": 1130944,
      "componentType": 5126,
      "count": 716,
      "max": [
        0.8549019694328308,
        0.8549019694328308,
        0.8549019694328308,
        0.0
      ],
      "min": [
        0.7843137383460999,
        0.7843137383460999,
        0.7843137383460999,
        0.0
      ],
      "type": "VEC4"
    },
    {
      "bufferView": 1,
      "byteOffset": 404312,
      "componentType": 5126,
      "count": 716,
      "max": [
        78.54179382324219,
        95.15959930419922
      ],
      "min": [
        5.121200084686279,
        40.74270248413086
      ],
      "type": "VEC2"
    },
    {
      "bufferView": 0,
      "byteOffset": 751224,
      "componentType": 5125,
      "count": 1968,
      "type": "SCALAR"
    },
    {
      "bufferView": 2,
      "byteOffset": 1210416,
      "componentType": 5126,
      "count": 1169,
      "max": [
        0.02747200056910515,
        0.15182000398635864,
        -0.006996000185608864
      ],
      "min": [
        0.021897999569773674,
        0.14624600112438202,
        -0.007710000034421682
      ],
      "type": "VEC3"
    },
    {
      "bufferView": 2,
      "byteOffset": 1224444,
      "componentType": 5126,
      "count": 1169,
      "max": [
        1.0,
        1.0,
        0.0
      ],
      "min": [
        -1.0,
        -1.0,
        -1.0
      ],
      "type": "VEC3"
    },
    {
      "bufferView": 3,
      "byteOffset": 1142400,
      "componentType": 5126,
      "count": 1169,
      "max": [
        0.718316912651062,
        0.9943701028823853,
        1.0,
        -1.0
      ],
      "min": [
        -0.15482661128044128,
        -0.9711905121803284,
        -1.0,
        -1.0
      ],
      "type": "VEC4"
    },
    {
      "bufferView": 3,
      "byteOffset": 1161104,
      "componentType": 5126,
      "count": 1169,
      "max": [
        0.9215686321258545,
        0.9215686321258545,
        0.9215686321258545,
        0.0
      ],
      "min": [
        0.0,
        0.0,
        0.0,
        0.0
      ],
      "type": "VEC4"
    },
    {
      "bufferView": 1,
      "byteOffset": 410040,
      "componentType": 5126,
      "count": 1169,
      "max": [
        7000.0,
        7000.0
      ],
      "min": [
        0.0,
        1176.0699462890625
      ],
      "type": "VEC2"
    },
    {
      "bufferView": 0,
      "byteOffset": 759096,
      "componentType": 5125,
      "count": 4032,
      "type": "SCALAR"
    },
    {
      "bufferView": 2,
      "byteOffset": 1238472,
      "componentType": 5126,
      "count": 138,
      "max": [
        0.025926999747753143,
        0.15027500689029694,
        -0.00760400015860796
      ],
      "min": [
        0.02344300039112568,
        0.14779099822044373,
        -0.008035000413656235
      ],
      "type": "VEC3"
    },
    {
      "bufferView": 2,
      "byteOffset": 1240128,
      "componentType": 5126,
      "count": 138,
      "max": [
        0.5843837857246399,
        0.5844311714172363,
        -0.8114134073257446
      ],
      "min": [
        -0.5843837857246399,
        -0.5843837857246399,
        -1.0
      ],
      "type": "VEC3"
    },
    {
      "bufferView": 1,
      "byteOffset": 419392,
      "componentType": 5126,
      "count": 138,
      "max": [
        1.0,
        1.0
      ],
      "min": [
        0.0,
        0.09757299721240997
      ],
      "type": "VEC2"
    },
    {
      "bufferView": 0,
      "byteOffset": 775224,
      "componentType": 5125,
      "count": 672,
      "type": "SCALAR"
    }
  ],
  "asset": {
    "extras": {
      "author": "extraakash (https://sketchfab.com/AakashMansukhani)",
      "license": "SKETCHFAB Standard (https://sketchfab.com/licenses)",
      "source": "https://sketchfab.com/3d-models/apple-iphone-18-pro-max-burgundy-2026-604acc18b5d5455d820a16359b45b003",
      "title": "Apple iPhone 18 Pro Max Burgundy 2026"
    },
    "generator": "Sketchfab-0.13.0",
    "version": "2.0"
  },
  "bufferViews": [
    {
      "buffer": 0,
      "byteLength": 777912,
      "name": "floatBufferViews",
      "target": 34963
    },
    {
      "buffer": 0,
      "byteLength": 420496,
      "byteOffset": 777912,
      "byteStride": 8,
      "name": "floatBufferViews",
      "target": 34962
    },
    {
      "buffer": 0,
      "byteLength": 1241784,
      "byteOffset": 1198408,
      "byteStride": 12,
      "name": "floatBufferViews",
      "target": 34962
    },
    {
      "buffer": 0,
      "byteLength": 1179808,
      "byteOffset": 2440192,
      "byteStride": 16,
      "name": "floatBufferViews",
      "target": 34962
    }
  ],
  "buffers": [
    {
      "byteLength": 3620000,
      "uri": "scene.bin"
    }
  ],
  "extensionsUsed": [
    "KHR_materials_clearcoat"
  ],
  "images": [
    {
      "uri": "textures/BASE_Cam_Lens_Front_baseColor.jpeg"
    },
    {
      "uri": "textures/BASE_Speakers_Front_metallicRoughness.png"
    },
    {
      "uri": "textures/BASE_Speakers_Front_normal.png"
    },
    {
      "uri": "textures/BASE_Cam_Lens01_baseColor.jpeg"
    },
    {
      "uri": "textures/COLOUR_Cherry_Side_Panel_normal.png"
    },
    {
      "uri": "textures/BASE_Grey_normal.png"
    },
    {
      "uri": "textures/BASE_Flash_Ref_Gradient_baseColor.png"
    },
    {
      "uri": "textures/BASE_Cam_Lens02_baseColor.jpeg"
    },
    {
      "uri": "textures/BASE_Cam_Lens03_baseColor.jpeg"
    },
    {
      "uri": "textures/COLOUR_Cherry_Screen_emissive.jpeg"
    }
  ],
  "materials": [
    {
      "name": "BASE_Cam_Lens_Front",
      "pbrMetallicRoughness": {
        "baseColorFactor": [
          0.84337,
          0.84337,
          0.84337,
          1.0
        ],
        "baseColorTexture": {
          "index": 0
        },
        "metallicFactor": 0.0,
        "roughnessFactor": 0.15
      }
    },
    {
      "name": "BASE_Chrome_Dark",
      "pbrMetallicRoughness": {
        "baseColorFactor": [
          0.0780566,
          0.0780566,
          0.0780566,
          1.0
        ],
        "roughnessFactor": 0.2209
      }
    },
    {
      "name": "COLOUR_Cherry_Antenna",
      "pbrMetallicRoughness": {
        "baseColorFactor": [
          0.0738278,
          0.0199178,
          0.0242229,
          1.0
        ],
        "metallicFactor": 0.0,
        "roughnessFactor": 0.6
      }
    },
    {
      "alphaMode": "BLEND",
      "name": "BASE_Glass",
      "pbrMetallicRoughness": {
        "baseColorFactor": [
          0.0511221,
          0.0511221,
          0.0511221,
          0.0
        ],
        "metallicFactor": 0.0,
        "roughnessFactor": 0.045
      }
    },
    {
      "alphaMode": "BLEND",
      "name": "COLOUR_Cherry_Backpanel",
      "pbrMetallicRoughness": {
        "baseColorFactor": [
          0.0581872,
          0.0103978,
          0.0160677,
          0.825
        ],
        "metallicFactor": 0.0,
        "roughnessFactor": 0.3
      }
    },
    {
      "name": "BASE_Speakers_Front",
      "normalTexture": {
        "index": 2
      },
      "occlusionTexture": {
        "index": 1
      },
      "pbrMetallicRoughness": {
        "baseColorFactor": [
          0.0111261,
          0.0111261,
          0.0111261,
          1.0
        ],
        "metallicRoughnessTexture": {
          "index": 1
        },
        "roughnessFactor": 0.4
      }
    },
    {
      "extensions": {
        "KHR_materials_clearcoat": {
          "clearcoatFactor": 0.25,
          "clearcoatRoughnessFactor": 0.0
        }
      },
      "name": "BASE_Glass_Black",
      "pbrMetallicRoughness": {
        "baseColorFactor": [
          0.0033027,
          0.0033027,
          0.0033027,
          1.0
        ],
        "metallicFactor": 0.0
      }
    },
    {
      "name": "BASE_Cam_Lens01",
      "pbrMetallicRoughness": {
        "baseColorFactor": [
          0.84337,
          0.84337,
          0.84337,
          1.0
        ],
        "baseColorTexture": {
          "index": 3
        },
        "metallicFactor": 0.0,
        "roughnessFactor": 0.15
      }
    },
    {
      "name": "COLOUR_Cherry_Side_Panel",
      "normalTexture": {
        "index": 4,
        "scale": 0.1
      },
      "pbrMetallicRoughness": {
        "baseColorFactor": [
          0.121986,
          0.0581872,
          0.0677246,
          1.0
        ],
        "roughnessFactor": 0.27
      }
    },
    {
      "alphaMode": "BLEND",
      "name": "BASE_Flash_Glass",
      "pbrMetallicRoughness": {
        "baseColorFactor": [
          0.297653,
          0.306635,
          0.320382,
          0.27
        ],
        "metallicFactor": 0.0,
        "roughnessFactor": 0.05
      }
    },
    {
      "name": "BASE_Flash_Base",
      "pbrMetallicRoughness": {
        "baseColorFactor": [
          0.605484,
          0.605484,
          0.592438,
          1.0
        ],
        "roughnessFactor": 0.25
      }
    },
    {
      "name": "BASE_Cam_Edge_Black",
      "pbrMetallicRoughness": {
        "baseColorFactor": [
          0.00552174,
          0.00552174,
          0.00552174,
          1.0
        ],
        "metallicFactor": 0.0,
        "roughnessFactor": 0.1
      }
    },
    {
      "name": "BASE_Grey",
      "normalTexture": {
        "index": 5,
        "scale": 0.15
      },
      "pbrMetallicRoughness": {
        "baseColorFactor": [
          0.0050282,
          0.0050282,
          0.00837312,
          1.0
        ],
        "metallicFactor": 0.0,
        "roughnessFactor": 0.82
      }
    },
    {
      "emissiveFactor": [
        0.136228,
        0.124214,
        0.0939869
      ],
      "name": "BASE_Flash_Light",
      "pbrMetallicRoughness": {
        "baseColorFactor": [
          0.632043,
          0.43134,
          0.130352,
          1.0
        ],
        "metallicFactor": 0.0,
        "roughnessFactor": 0.045
      }
    },
    {
      "alphaMode": "BLEND",
      "name": "BASE_Flash_Ref",
      "pbrMetallicRoughness": {
        "baseColorFactor": [
          0.585973,
          0.585973,
          0.517401,
          0.72
        ],
        "metallicFactor": 0.0,
        "roughnessFactor": 0.8
      }
    },
    {
      "alphaMode": "BLEND",
      "name": "BASE_Flash_Ref_Gradient",
      "pbrMetallicRoughness": {
        "baseColorFactor": [
          0.558087,
          0.558087,
          0.558087,
          0.09
        ],
        "baseColorTexture": {
          "index": 6
        },
        "metallicFactor": 0.0,
        "roughnessFactor": 0.5
      }
    },
    {
      "doubleSided": true,
      "name": "COLOUR_Cherry_Aniso",
      "pbrMetallicRoughness": {
        "baseColorFactor": [
          0.0738278,
          0.0356144,
          0.0461488,
          1.0
        ],
        "roughnessFactor": 0.3
      }
    },
    {
      "name": "COLOUR_Cherry_Aniso_0",
      "pbrMetallicRoughness": {
        "baseColorFactor": [
          0.0738278,
          0.0356144,
          0.0461488,
          1.0
        ],
        "roughnessFactor": 0.3
      }
    },
    {
      "name": "BASE_Speakers",
      "normalTexture": {
        "index": 2
      },
      "occlusionTexture": {
        "index": 1
      },
      "pbrMetallicRoughness": {
        "baseColorFactor": [
          0.180144,
          0.176774,
          0.176774,
          1.0
        ],
        "metallicRoughnessTexture": {
          "index": 1
        },
        "roughnessFactor": 0.4
      }
    },
    {
      "name": "COLOUR_Cherry_Plastic",
      "pbrMetallicRoughness": {
        "baseColorFactor": [
          0.103634,
          0.0160677,
          0.0302565,
          1.0
        ],
        "metallicFactor": 0.0,
        "roughnessFactor": 0.35
      }
    },
    {
      "name": "BASE_Copper",
      "pbrMetallicRoughness": {
        "baseColorFactor": [
          0.481952,
          0.404541,
          0.288816,
          1.0
        ],
        "roughnessFactor": 0.045
      }
    },
    {
      "name": "BASE_Black",
      "pbrMetallicRoughness": {
        "baseColorFactor": [
          0.0160677,
          0.0160677,
          0.0160677,
          1.0
        ],
        "metallicFactor": 0.0
      }
    },
    {
      "name": "BASE_Cam_Lens02",
      "pbrMetallicRoughness": {
        "baseColorFactor": [
          0.84337,
          0.84337,
          0.84337,
          1.0
        ],
        "baseColorTexture": {
          "index": 7
        },
        "metallicFactor": 0.0,
        "roughnessFactor": 0.15
      }
    },
    {
      "name": "BASE_Cam_Lens03",
      "pbrMetallicRoughness": {
        "baseColorFactor": [
          0.84337,
          0.84337,
          0.84337,
          1.0
        ],
        "baseColorTexture": {
          "index": 8
        },
        "metallicFactor": 0.0,
        "roughnessFactor": 0.15
      }
    },
    {
      "extensions": {
        "KHR_materials_clearcoat": {
          "clearcoatFactor": 0.25,
          "clearcoatRoughnessFactor": 0.0
        }
      },
      "name": "BASE_Sensor",
      "pbrMetallicRoughness": {
        "baseColorFactor": [
          0.0033027,
          0.0033027,
          0.0033027,
          1.0
        ],
        "metallicFactor": 0.0,
        "roughnessFactor": 0.98
      }
    },
    {
      "emissiveFactor": [
        0.9995,
        0.9995,
        0.9995
      ],
      "emissiveTexture": {
        "index": 9
      },
      "extensions": {
        "KHR_materials_clearcoat": {
          "clearcoatFactor": 0.25,
          "clearcoatRoughnessFactor": 0.0
        }
      },
      "name": "COLOUR_Cherry_Screen",
      "pbrMetallicRoughness": {
        "baseColorFactor": [
          0.0315514,
          0.0315514,
          0.0315514,
          1.0
        ],
        "metallicFactor": 0.0
      }
    },
    {
      "name": "COLOUR_Cherry_Button_Detail_Border",
      "pbrMetallicRoughness": {
        "baseColorFactor": [
          0.0384727,
          0.0126637,
          0.0169881,
          1.0
        ],
        "roughnessFactor": 0.045
      }
    },
    {
      "alphaMode": "BLEND",
      "name": "BASE_Flash_Glass_duplicate",
      "pbrMetallicRoughness": {
        "baseColorFactor": [
          0.638779,
          0.645555,
          0.659224,
          0.89
        ],
        "metallicFactor": 0.0,
        "roughnessFactor": 0.27
      }
    },
    {
      "name": "COLOUR_Cherry_Apple",
      "pbrMetallicRoughness": {
        "baseColorFactor": [
          0.0986892,
          0.0328759,
          0.0414519,
          1.0
        ],
        "metallicFactor": 0.0,
        "roughnessFactor": 0.045
      }
    },
    {
      "name": "COLOUR_Cherry_Screws",
      "pbrMetallicRoughness": {
        "baseColorFactor": [
          0.0738278,
          0.0356144,
          0.0461488,
          1.0
        ],
        "roughnessFactor": 0.2209
      }
    },
    {
      "name": "COLOUR_Cherry_Side_Button_Detail",
      "pbrMetallicRoughness": {
        "baseColorFactor": [
          0.0846415,
          0.0160677,
          0.0277553,
          1.0
        ],
        "metallicFactor": 0.0,
        "roughnessFactor": 0.1
      }
    },
    {
      "name": "COLOUR_Cherry_Side_Panel_Gloss",
      "pbrMetallicRoughness": {
        "baseColorFactor": [
          0.133209,
          0.0528416,
          0.0677246,
          1.0
        ],
        "roughnessFactor": 0.2
      }
    },
    {
      "name": "BASE_Grey_02",
      "normalTexture": {
        "index": 5,
        "scale": 0.15
      },
      "pbrMetallicRoughness": {
        "baseColorFactor": [
          0.0134734,
          0.0134734,
          0.0151752,
          1.0
        ],
        "metallicFactor": 0.0,
        "roughnessFactor": 0.8
      }
    },
    {
      "alphaMode": "BLEND",
      "name": "BASE_Cam_Lens_Outer",
      "pbrMetallicRoughness": {
        "baseColorFactor": [
          0.0134734,
          0.0134734,
          0.0134734,
          0.45
        ],
        "metallicFactor": 0.0,
        "roughnessFactor": 0.15
      }
    }
  ],
  "meshes": [
    {
      "name": "Object_0",
      "primitives": [
        {
          "attributes": {
            "NORMAL": 1,
            "POSITION": 0,
            "TEXCOORD_0": 2
          },
          "indices": 3,
          "material": 0,
          "mode": 4
        }
      ]
    },
    {
      "name": "Object_1",
      "primitives": [
        {
          "attributes": {
            "COLOR_0": 6,
            "NORMAL": 5,
            "POSITION": 4,
            "TEXCOORD_0": 7
          },
          "indices": 8,
          "material": 1,
          "mode": 4
        }
      ]
    },
    {
      "name": "Object_2",
      "primitives": [
        {
          "attributes": {
            "COLOR_0": 11,
            "NORMAL": 10,
            "POSITION": 9,
            "TEXCOORD_0": 12
          },
          "indices": 13,
          "material": 2,
          "mode": 4
        }
      ]
    },
    {
      "name": "Object_3",
      "primitives": [
        {
          "attributes": {
            "NORMAL": 15,
            "POSITION": 14,
            "TEXCOORD_0": 16
          },
          "indices": 17,
          "material": 3,
          "mode": 4
        }
      ]
    },
    {
      "name": "Object_4",
      "primitives": [
        {
          "attributes": {
            "NORMAL": 19,
            "POSITION": 18,
            "TEXCOORD_0": 20
          },
          "indices": 21,
          "material": 4,
          "mode": 4
        }
      ]
    },
    {
      "name": "Object_5",
      "primitives": [
        {
          "attributes": {
            "COLOR_0": 25,
            "NORMAL": 23,
            "POSITION": 22,
            "TANGENT": 24,
            "TEXCOORD_0": 26,
            "TEXCOORD_1": 27
          },
          "indices": 28,
          "material": 5,
          "mode": 4
        }
      ]
    },
    {
      "name": "Object_6",
      "primitives": [
        {
          "attributes": {
            "COLOR_0": 31,
            "NORMAL": 30,
            "POSITION": 29,
            "TEXCOORD_0": 32
          },
          "indices": 33,
          "material": 6,
          "mode": 4
        }
      ]
    },
    {
      "name": "Object_7",
      "primitives": [
        {
          "attributes": {
            "NORMAL": 35,
            "POSITION": 34,
            "TEXCOORD_0": 36
          },
          "indices": 37,
          "material": 7,
          "mode": 4
        }
      ]
    },
    {
      "name": "Object_8",
      "primitives": [
        {
          "attributes": {
            "NORMAL": 39,
            "POSITION": 38,
            "TANGENT": 40,
            "TEXCOORD_0": 41
          },
          "indices": 42,
          "material": 8,
          "mode": 4
        }
      ]
    },
    {
      "name": "Object_9",
      "primitives": [
        {
          "attributes": {
            "NORMAL": 44,
            "POSITION": 43,
            "TEXCOORD_0": 45
          },
          "indices": 46,
          "material": 9,
          "mode": 4
        }
      ]
    },
    {
      "name": "Object_10",
      "primitives": [
        {
          "attributes": {
            "COLOR_0": 49,
            "NORMAL": 48,
            "POSITION": 47,
            "TEXCOORD_0": 50
          },
          "indices": 51,
          "material": 10,
          "mode": 4
        }
      ]
    },
    {
      "name": "Object_11",
      "primitives": [
        {
          "attributes": {
            "COLOR_0": 54,
            "NORMAL": 53,
            "POSITION": 52,
            "TEXCOORD_0": 55
          },
          "indices": 56,
          "material": 11,
          "mode": 4
        }
      ]
    },
    {
      "name": "Object_12",
      "primitives": [
        {
          "attributes": {
            "NORMAL": 58,
            "POSITION": 57,
            "TEXCOORD_0": 59
          },
          "indices": 60,
          "material": 3,
          "mode": 4
        }
      ]
    },
    {
      "name": "Object_13",
      "primitives": [
        {
          "attributes": {
            "COLOR_0": 64,
            "NORMAL": 62,
            "POSITION": 61,
            "TANGENT": 63,
            "TEXCOORD_0": 65
          },
          "indices": 66,
          "material": 12,
          "mode": 4
        }
      ]
    },
    {
      "name": "Object_14",
      "primitives": [
        {
          "attributes": {
            "COLOR_0": 69,
            "NORMAL": 68,
            "POSITION": 67,
            "TEXCOORD_0": 70
          },
          "indices": 71,
          "material": 13,
          "mode": 4
        }
      ]
    },
    {
      "name": "Object_15",
      "primitives": [
        {
          "attributes": {
            "NORMAL": 73,
            "POSITION": 72,
            "TEXCOORD_0": 74
          },
          "indices": 75,
          "material": 14,
          "mode": 4
        }
      ]
    },
    {
      "name": "Object_16",
      "primitives": [
        {
          "attributes": {
            "COLOR_0": 78,
            "NORMAL": 77,
            "POSITION": 76,
            "TEXCOORD_0": 79
          },
          "indices": 80,
          "material": 15,
          "mode": 4
        }
      ]
    },
    {
      "name": "Object_17",
      "primitives": [
        {
          "attributes": {
            "NORMAL": 82,
            "POSITION": 81,
            "TEXCOORD_0": 83
          },
          "indices": 84,
          "material": 16,
          "mode": 4
        }
      ]
    },
    {
      "name": "Object_18",
      "primitives": [
        {
          "attributes": {
            "NORMAL": 86,
            "POSITION": 85,
            "TEXCOORD_0": 87
          },
          "indices": 88,
          "material": 17,
          "mode": 4
        }
      ]
    },
    {
      "name": "Object_19",
      "primitives": [
        {
          "attributes": {
            "COLOR_0": 92,
            "NORMAL": 90,
            "POSITION": 89,
            "TANGENT": 91,
            "TEXCOORD_0": 93,
            "TEXCOORD_1": 94
          },
          "indices": 95,
          "material": 18,
          "mode": 4
        }
      ]
    },
    {
      "name": "Object_20",
      "primitives": [
        {
          "attributes": {
            "COLOR_0": 98,
            "NORMAL": 97,
            "POSITION": 96,
            "TEXCOORD_0": 99
          },
          "indices": 100,
          "material": 2,
          "mode": 4
        }
      ]
    },
    {
      "name": "Object_21",
      "primitives": [
        {
          "attributes": {
            "COLOR_0": 103,
            "NORMAL": 102,
            "POSITION": 101,
            "TEXCOORD_0": 104
          },
          "indices": 105,
          "material": 19,
          "mode": 4
        }
      ]
    },
    {
      "name": "Object_22",
      "primitives": [
        {
          "attributes": {
            "COLOR_0": 108,
            "NORMAL": 107,
            "POSITION": 106,
            "TEXCOORD_0": 109
          },
          "indices": 110,
          "material": 20,
          "mode": 4
        }
      ]
    },
    {
      "name": "Object_23",
      "primitives": [
        {
          "attributes": {
            "COLOR_0": 113,
            "NORMAL": 112,
            "POSITION": 111,
            "TEXCOORD_0": 114
          },
          "indices": 115,
          "material": 21,
          "mode": 4
        }
      ]
    },
    {
      "name": "Object_24",
      "primitives": [
        {
          "attributes": {
            "COLOR_0": 118,
            "NORMAL": 117,
            "POSITION": 116,
            "TEXCOORD_0": 119
          },
          "indices": 120,
          "material": 21,
          "mode": 4
        }
      ]
    },
    {
      "name": "Object_25",
      "primitives": [
        {
          "attributes": {
            "NORMAL": 122,
            "POSITION": 121,
            "TEXCOORD_0": 123
          },
          "indices": 124,
          "material": 22,
          "mode": 4
        }
      ]
    },
    {
      "name": "Object_26",
      "primitives": [
        {
          "attributes": {
            "NORMAL": 126,
            "POSITION": 125,
            "TEXCOORD_0": 127
          },
          "indices": 128,
          "material": 23,
          "mode": 4
        }
      ]
    },
    {
      "name": "Object_27",
      "primitives": [
        {
          "attributes": {
            "COLOR_0": 131,
            "NORMAL": 130,
            "POSITION": 129,
            "TEXCOORD_0": 132
          },
          "indices": 133,
          "material": 24,
          "mode": 4
        }
      ]
    },
    {
      "name": "Object_28",
      "primitives": [
        {
          "attributes": {
            "COLOR_0": 136,
            "NORMAL": 135,
            "POSITION": 134,
            "TEXCOORD_0": 137
          },
          "indices": 138,
          "material": 25,
          "mode": 4
        }
      ]
    },
    {
      "name": "Object_29",
      "primitives": [
        {
          "attributes": {
            "COLOR_0": 141,
            "NORMAL": 140,
            "POSITION": 139,
            "TEXCOORD_0": 142
          },
          "indices": 143,
          "material": 21,
          "mode": 4
        }
      ]
    },
    {
      "name": "Object_30",
      "primitives": [
        {
          "attributes": {
            "COLOR_0": 146,
            "NORMAL": 145,
            "POSITION": 144,
            "TEXCOORD_0": 147
          },
          "indices": 148,
          "material": 26,
          "mode": 4
        }
      ]
    },
    {
      "name": "Object_31",
      "primitives": [
        {
          "attributes": {
            "COLOR_0": 151,
            "NORMAL": 150,
            "POSITION": 149,
            "TEXCOORD_0": 152
          },
          "indices": 153,
          "material": 24,
          "mode": 4
        }
      ]
    },
    {
      "name": "Object_32",
      "primitives": [
        {
          "attributes": {
            "COLOR_0": 157,
            "NORMAL": 155,
            "POSITION": 154,
            "TANGENT": 156,
            "TEXCOORD_0": 158
          },
          "indices": 159,
          "material": 8,
          "mode": 4
        }
      ]
    },
    {
      "name": "Object_33",
      "primitives": [
        {
          "attributes": {
            "COLOR_0": 162,
            "NORMAL": 161,
            "POSITION": 160,
            "TEXCOORD_0": 163
          },
          "indices": 164,
          "material": 27,
          "mode": 4
        }
      ]
    },
    {
      "name": "Object_34",
      "primitives": [
        {
          "attributes": {
            "COLOR_0": 167,
            "NORMAL": 166,
            "POSITION": 165,
            "TEXCOORD_0": 168
          },
          "indices": 169,
          "material": 28,
          "mode": 4
        }
      ]
    },
    {
      "name": "Object_35",
      "primitives": [
        {
          "attributes": {
            "COLOR_0": 172,
            "NORMAL": 171,
            "POSITION": 170,
            "TEXCOORD_0": 173
          },
          "indices": 174,
          "material": 29,
          "mode": 4
        }
      ]
    },
    {
      "name": "Object_36",
      "primitives": [
        {
          "attributes": {
            "COLOR_0": 177,
            "NORMAL": 176,
            "POSITION": 175,
            "TEXCOORD_0": 178
          },
          "indices": 179,
          "material": 30,
          "mode": 4
        }
      ]
    },
    {
      "name": "Object_37",
      "primitives": [
        {
          "attributes": {
            "COLOR_0": 183,
            "NORMAL": 181,
            "POSITION": 180,
            "TANGENT": 182,
            "TEXCOORD_0": 184
          },
          "indices": 185,
          "material": 12,
          "mode": 4
        }
      ]
    },
    {
      "name": "Object_38",
      "primitives": [
        {
          "attributes": {
            "COLOR_0": 188,
            "NORMAL": 187,
            "POSITION": 186,
            "TEXCOORD_0": 189
          },
          "indices": 190,
          "material": 21,
          "mode": 4
        }
      ]
    },
    {
      "name": "Object_39",
      "primitives": [
        {
          "attributes": {
            "COLOR_0": 194,
            "NORMAL": 192,
            "POSITION": 191,
            "TANGENT": 193,
            "TEXCOORD_0": 195
          },
          "indices": 196,
          "material": 12,
          "mode": 4
        }
      ]
    },
    {
      "name": "Object_40",
      "primitives": [
        {
          "attributes": {
            "COLOR_0": 199,
            "NORMAL": 198,
            "POSITION": 197,
            "TEXCOORD_0": 200
          },
          "indices": 201,
          "material": 31,
          "mode": 4
        }
      ]
    },
    {
      "name": "Object_41",
      "primitives": [
        {
          "attributes": {
            "COLOR_0": 205,
            "NORMAL": 203,
            "POSITION": 202,
            "TANGENT": 204,
            "TEXCOORD_0": 206
          },
          "indices": 207,
          "material": 32,
          "mode": 4
        }
      ]
    },
    {
      "name": "Object_42",
      "primitives": [
        {
          "attributes": {
            "NORMAL": 209,
            "POSITION": 208,
            "TEXCOORD_0": 210
          },
          "indices": 211,
          "material": 33,
          "mode": 4
        }
      ]
    }
  ],
  "nodes": [
    {
      "children": [
        1
      ],
      "matrix": [
        1.0,
        0.0,
        0.0,
        0.0,
        0.0,
        2.220446049250313e-16,
        -1.0,
        0.0,
        0.0,
        1.0,
        2.220446049250313e-16,
        0.0,
        0.0,
        0.0,
        0.0,
        1.0
      ],
      "name": "Sketchfab_model"
    },
    {
      "children": [
        2
      ],
      "name": "root"
    },
    {
      "children": [
        3,
        5,
        7,
        9,
        11,
        13,
        15,
        17,
        19,
        21,
        23,
        25,
        27,
        29,
        31,
        33,
        37,
        39,
        41,
        43,
        45,
        47,
        49,
        51,
        53,
        55,
        57,
        59,
        61,
        63,
        65,
        67,
        69,
        71,
        73,
        75,
        77,
        79,
        81,
        83,
        85,
        87
      ],
      "matrix": [
        1.0,
        0.0,
        0.0,
        0.0,
        0.0,
        2.220446049250313e-16,
        1.0,
        0.0,
        0.0,
        -1.0,
        2.220446049250313e-16,
        0.0,
        0.0,
        0.0,
        0.0,
        1.0
      ],
      "name": "GLTF_SceneRootNode"
    },
    {
      "children": [
        4
      ],
      "name": "Front_Cam_Lens_0"
    },
    {
      "mesh": 0,
      "name": "Object_4"
    },
    {
      "children": [
        6
      ],
      "name": "USB_Metal_1"
    },
    {
      "mesh": 1,
      "name": "Object_6"
    },
    {
      "children": [
        8
      ],
      "name": "Antenna_2"
    },
    {
      "mesh": 2,
      "name": "Object_8"
    },
    {
      "children": [
        10
      ],
      "name": "Front_Cam_Glass_3"
    },
    {
      "mesh": 3,
      "name": "Object_10"
    },
    {
      "children": [
        12
      ],
      "name": "Back_Panel_4"
    },
    {
      "mesh": 4,
      "name": "Object_12"
    },
    {
      "children": [
        14
      ],
      "name": "Front_Speaker_5"
    },
    {
      "mesh": 5,
      "name": "Object_14"
    },
    {
      "children": [
        16
      ],
      "name": "Front_Panel_6"
    },
    {
      "mesh": 6,
      "name": "Object_16"
    },
    {
      "children": [
        18
      ],
      "name": "Back_Cam_Lens_7"
    },
    {
      "mesh": 7,
      "name": "Object_18"
    },
    {
      "children": [
        20
      ],
      "name": "Back_Cam_Edge_8"
    },
    {
      "mesh": 8,
      "name": "Object_20"
    },
    {
      "children": [
        22
      ],
      "name": "Back_Flash_Glass_9"
    },
    {
      "mesh": 9,
      "name": "Object_22"
    },
    {
      "children": [
        24
      ],
      "name": "Back_Flash_Base_10"
    },
    {
      "mesh": 10,
      "name": "Object_24"
    },
    {
      "children": [
        26
      ],
      "name": "Back_Cam_Edge_black_11"
    },
    {
      "mesh": 11,
      "name": "Object_26"
    },
    {
      "children": [
        28
      ],
      "name": "Back_Cam_Glass_12"
    },
    {
      "mesh": 12,
      "name": "Object_28"
    },
    {
      "children": [
        30
      ],
      "name": "Back_Cam_Base_13"
    },
    {
      "mesh": 13,
      "name": "Object_30"
    },
    {
      "children": [
        32
      ],
      "name": "Back_Flash_Light_14"
    },
    {
      "mesh": 14,
      "name": "Object_32"
    },
    {
      "children": [
        34,
        35
      ],
      "name": "Back_Flash_Ref_15"
    },
    {
      "mesh": 15,
      "name": "Object_34"
    },
    {
      "children": [
        36
      ],
      "name": "Gradient_23"
    },
    {
      "mesh": 16,
      "name": "Object_36"
    },
    {
      "children": [
        38
      ],
      "name": "Screws_Aniso_01_16"
    },
    {
      "mesh": 17,
      "name": "Object_38"
    },
    {
      "children": [
        40
      ],
      "name": "Screws_Aniso_02_17"
    },
    {
      "mesh": 18,
      "name": "Object_40"
    },
    {
      "children": [
        42
      ],
      "name": "Side_Panel_Speakers_18"
    },
    {
      "mesh": 19,
      "name": "Object_42"
    },
    {
      "children": [
        44
      ],
      "name": "USB_Border_19"
    },
    {
      "mesh": 20,
      "name": "Object_44"
    },
    {
      "children": [
        46
      ],
      "name": "USB_Base_20"
    },
    {
      "mesh": 21,
      "name": "Object_46"
    },
    {
      "children": [
        48
      ],
      "name": "USB_Pin_21"
    },
    {
      "mesh": 22,
      "name": "Object_48"
    },
    {
      "children": [
        50
      ],
      "name": "Back_Cam_Black_22"
    },
    {
      "mesh": 23,
      "name": "Object_50"
    },
    {
      "children": [
        52
      ],
      "name": "Holes_24"
    },
    {
      "mesh": 24,
      "name": "Object_52"
    },
    {
      "children": [
        54
      ],
      "name": "Back_Cam_Lens_02_25"
    },
    {
      "mesh": 25,
      "name": "Object_54"
    },
    {
      "children": [
        56
      ],
      "name": "Back_Cam_Lens_03_26"
    },
    {
      "mesh": 26,
      "name": "Object_56"
    },
    {
      "children": [
        58
      ],
      "name": "Back_IR_Glass_27"
    },
    {
      "mesh": 27,
      "name": "Object_58"
    },
    {
      "children": [
        60
      ],
      "name": "Front_Screen_28"
    },
    {
      "mesh": 28,
      "name": "Object_60"
    },
    {
      "children": [
        62
      ],
      "name": "Back_Mic_29"
    },
    {
      "mesh": 29,
      "name": "Object_62"
    },
    {
      "children": [
        64
      ],
      "name": "Side_Button_Detail_Border_30"
    },
    {
      "mesh": 30,
      "name": "Object_64"
    },
    {
      "children": [
        66
      ],
      "name": "Front_Sensor_31"
    },
    {
      "mesh": 31,
      "name": "Object_66"
    },
    {
      "children": [
        68
      ],
      "name": "Side_Panel_32"
    },
    {
      "mesh": 32,
      "name": "Object_68"
    },
    {
      "children": [
        70
      ],
      "name": "Back_Flash_Glass_Matte_33"
    },
    {
      "mesh": 33,
      "name": "Object_70"
    },
    {
      "children": [
        72
      ],
      "name": "Back_Logo_34"
    },
    {
      "mesh": 34,
      "name": "Object_72"
    },
    {
      "children": [
        74
      ],
      "name": "Screws_35"
    },
    {
      "mesh": 35,
      "name": "Object_74"
    },
    {
      "children": [
        76
      ],
      "name": "Side_Button_36"
    },
    {
      "mesh": 36,
      "name": "Object_76"
    },
    {
      "children": [
        78
      ],
      "name": "Back_Cam_Aperture_37"
    },
    {
      "mesh": 37,
      "name": "Object_78"
    },
    {
      "children": [
        80
      ],
      "name": "Front_Cam_Inset_38"
    },
    {
      "mesh": 38,
      "name": "Object_80"
    },
    {
      "children": [
        82
      ],
      "name": "Front_Cam_Base_39"
    },
    {
      "mesh": 39,
      "name": "Object_82"
    },
    {
      "children": [
        84
      ],
      "name": "Side_Panel_Gloss_40"
    },
    {
      "mesh": 40,
      "name": "Object_84"
    },
    {
      "children": [
        86
      ],
      "name": "Back_Cam_Base.001_41"
    },
    {
      "mesh": 41,
      "name": "Object_86"
    },
    {
      "children": [
        88
      ],
      "name": "Back_Cam_Lens_Outer_42"
    },
    {
      "mesh": 42,
      "name": "Object_88"
    }
  ],
  "samplers": [
    {
      "magFilter": 9729,
      "minFilter": 9987,
      "wrapS": 10497,
      "wrapT": 10497
    }
  ],
  "scene": 0,
  "scenes": [
    {
      "name": "Sketchfab_Scene",
      "nodes": [
        0
      ]
    }
  ],
  "textures": [
    {
      "sampler": 0,
      "source": 0
    },
    {
      "sampler": 0,
      "source": 1
    },
    {
      "sampler": 0,
      "source": 2
    },
    {
      "sampler": 0,
      "source": 3
    },
    {
      "sampler": 0,
      "source": 4
    },
    {
      "sampler": 0,
      "source": 5
    },
    {
      "sampler": 0,
      "source": 6
    },
    {
      "sampler": 0,
      "source": 7
    },
    {
      "sampler": 0,
      "source": 8
    },
    {
      "sampler": 0,
      "source": 9
    }
  ]
}
